<svg width="1038" height="800" viewBox="0 0 1038 800" fill="none" xmlns="http://www.w3.org/2000/svg">
<rect x="432" y="-10" width="150" height="800" fill="url(#paint0_linear)"/>
<rect x="606" y="-10" width="150" height="800" fill="url(#paint1_linear)"/>
<rect x="780" y="156.074" width="150" height="633.926" fill="url(#paint2_linear)"/>
<rect x="954" y="80.1542" width="150" height="709.846" fill="url(#paint3_linear)"/>
<path d="M279 694.5C184.746 706.381 105.5 800 0 800H1038V151C990 77.5 912.766 237.799 881 437.5C841.293 687.126 785 305 702 305C604 305 512.5 739 432.5 739C376.5 739 338.5 687 279 694.5Z" fill="#E5E5E5"/>
<defs>
<linearGradient id="paint0_linear" x1="507" y1="201.64" x2="507" y2="790" gradientUnits="userSpaceOnUse">
<stop offset="0.1875" stop-color="white" stop-opacity="0"/>
<stop offset="1" stop-color="#EEEEEE"/>
</linearGradient>
<linearGradient id="paint1_linear" x1="681" y1="-10" x2="681" y2="790" gradientUnits="userSpaceOnUse">
<stop offset="0.177083" stop-color="white" stop-opacity="0"/>
<stop offset="1" stop-color="#EEEEEE"/>
</linearGradient>
<linearGradient id="paint2_linear" x1="855" y1="156.074" x2="855" y2="790" gradientUnits="userSpaceOnUse">
<stop offset="0.09375" stop-color="white" stop-opacity="0"/>
<stop offset="0.78125" stop-color="#EEEEEE"/>
</linearGradient>
<linearGradient id="paint3_linear" x1="1029" y1="80.1542" x2="1029" y2="790" gradientUnits="userSpaceOnUse">
<stop offset="0.0260417" stop-color="white" stop-opacity="0"/>
<stop offset="0.46875" stop-color="#EEEEEE"/>
</linearGradient>
</defs>
</svg>
